<svg xmlns="http://www.w3.org/2000/svg" xmlns:xlink="http://www.w3.org/1999/xlink" width="1024" zoomAndPan="magnify" viewBox="0 0 768 767.999994" height="1024" preserveAspectRatio="xMidYMid meet" version="1.0"><defs><clipPath id="f3b793a833"><path d="M 65 64.511719 L 701.953125 64.511719 L 701.953125 701 L 65 701 Z M 65 64.511719 " clip-rule="nonzero"/></clipPath><clipPath id="9b6452d498"><path d="M 383.230469 64.972656 C 207.714844 64.972656 65.433594 207.257812 65.433594 382.769531 C 65.433594 558.285156 207.714844 700.570312 383.230469 700.570312 C 558.746094 700.570312 701.03125 558.285156 701.03125 382.769531 C 701.03125 207.257812 558.746094 64.972656 383.230469 64.972656 Z M 383.230469 64.972656 " clip-rule="nonzero"/></clipPath><clipPath id="e48422680b"><path d="M 0.28125 0.800781 L 636.039062 0.800781 L 636.039062 636.800781 L 0.28125 636.800781 Z M 0.28125 0.800781 " clip-rule="nonzero"/></clipPath><clipPath id="0f568e56ba"><path d="M 318.230469 0.972656 C 142.714844 0.972656 0.433594 143.257812 0.433594 318.769531 C 0.433594 494.285156 142.714844 636.570312 318.230469 636.570312 C 493.746094 636.570312 636.03125 494.285156 636.03125 318.769531 C 636.03125 143.257812 493.746094 0.972656 318.230469 0.972656 Z M 318.230469 0.972656 " clip-rule="nonzero"/></clipPath><clipPath id="ee47458c72"><rect x="0" width="637" y="0" height="637"/></clipPath><clipPath id="8daa189d10"><path d="M 168 244.933594 L 599.863281 244.933594 L 599.863281 620.285156 L 168 620.285156 Z M 168 244.933594 " clip-rule="nonzero"/></clipPath><clipPath id="dddad5babc"><path d="M 384 620.285156 L 168.136719 244.933594 L 599.863281 244.933594 Z M 384 620.285156 " clip-rule="nonzero"/></clipPath><clipPath id="d03256a120"><path d="M 0 0.933594 L 431.863281 0.933594 L 431.863281 376.285156 L 0 376.285156 Z M 0 0.933594 " clip-rule="nonzero"/></clipPath><clipPath id="eeee74aaf0"><path d="M 216 376.285156 L 0.136719 0.933594 L 431.863281 0.933594 Z M 216 376.285156 " clip-rule="nonzero"/></clipPath><clipPath id="1cf4bbd050"><rect x="0" width="432" y="0" height="377"/></clipPath><clipPath id="ccf3d10a75"><path d="M 261.472656 297.425781 L 506.160156 297.425781 L 506.160156 511.210938 L 261.472656 511.210938 Z M 261.472656 297.425781 " clip-rule="nonzero"/></clipPath><clipPath id="353b5acd82"><path d="M 383.996094 511.210938 L 261.832031 297.425781 L 506.160156 297.425781 Z M 383.996094 511.210938 " clip-rule="nonzero"/></clipPath><clipPath id="90ee3eb721"><path d="M 0.601562 0.425781 L 245.160156 0.425781 L 245.160156 214.210938 L 0.601562 214.210938 Z M 0.601562 0.425781 " clip-rule="nonzero"/></clipPath><clipPath id="09a8bbb8e2"><path d="M 122.996094 214.210938 L 0.832031 0.425781 L 245.160156 0.425781 Z M 122.996094 214.210938 " clip-rule="nonzero"/></clipPath><clipPath id="b8a0ce1d50"><rect x="0" width="246" y="0" height="215"/></clipPath><clipPath id="7aec0e8319"><path d="M 249 370 L 347 370 L 347 467 L 249 467 Z M 249 370 " clip-rule="nonzero"/></clipPath><clipPath id="550d220ae1"><path d="M 312.117188 370.566406 L 346.59375 431.078125 L 284.046875 466.710938 L 249.570312 406.199219 Z M 312.117188 370.566406 " clip-rule="nonzero"/></clipPath><clipPath id="efd73c1fe3"><path d="M 0.359375 0.558594 L 97.800781 0.558594 L 97.800781 96.800781 L 0.359375 96.800781 Z M 0.359375 0.558594 " clip-rule="nonzero"/></clipPath><clipPath id="3946b51400"><path d="M 63.117188 0.566406 L 97.59375 61.078125 L 35.046875 96.710938 L 0.570312 36.199219 Z M 63.117188 0.566406 " clip-rule="nonzero"/></clipPath><clipPath id="f3eb273d6e"><rect x="0" width="98" y="0" height="97"/></clipPath><clipPath id="e67f56b6bb"><path d="M 423 373 L 513 373 L 513 464 L 423 464 Z M 423 373 " clip-rule="nonzero"/></clipPath><clipPath id="d549aa3ffa"><path d="M 423.410156 432.386719 L 456.574219 373.464844 L 512.394531 404.886719 L 479.230469 463.804688 Z M 423.410156 432.386719 " clip-rule="nonzero"/></clipPath><clipPath id="308527f7f8"><path d="M 0.359375 0.441406 L 89.398438 0.441406 L 89.398438 90.921875 L 0.359375 90.921875 Z M 0.359375 0.441406 " clip-rule="nonzero"/></clipPath><clipPath id="e8e559f087"><path d="M 0.410156 59.386719 L 33.574219 0.464844 L 89.394531 31.886719 L 56.230469 90.804688 Z M 0.410156 59.386719 " clip-rule="nonzero"/></clipPath><clipPath id="ee266df091"><rect x="0" width="90" y="0" height="91"/></clipPath><clipPath id="73b17eda99"><rect x="0" width="768" y="0" height="768"/></clipPath></defs><rect x="-76.8" width="921.6" fill="#ffffff" y="-76.799999" height="921.599993" fill-opacity="1"/><rect x="-76.8" width="921.6" fill="#2c2c2f" y="-76.799999" height="921.599993" fill-opacity="1"/><g transform="matrix(1, 0, 0, 1, 0, -0.000000000000057351)"><g clip-path="url(#73b17eda99)"><g clip-path="url(#f3b793a833)"><g clip-path="url(#9b6452d498)"><g transform="matrix(1, 0, 0, 1, 65, 64)"><g clip-path="url(#ee47458c72)"><g clip-path="url(#e48422680b)"><g clip-path="url(#0f568e56ba)"><rect x="-344.552" width="1327.104" fill="#2c2c2f" y="-343.551998" height="1327.10399" fill-opacity="1"/></g></g></g></g></g></g><g clip-path="url(#8daa189d10)"><g clip-path="url(#dddad5babc)"><g transform="matrix(1, 0, 0, 1, 168, 244)"><g clip-path="url(#1cf4bbd050)"><g clip-path="url(#d03256a120)"><g clip-path="url(#eeee74aaf0)"><path fill="#ffffff" d="M 431.863281 376.285156 L 0.792969 376.285156 L 0.792969 0.933594 L 431.863281 0.933594 Z M 431.863281 376.285156 " fill-opacity="1" fill-rule="nonzero"/></g></g></g></g></g></g><g clip-path="url(#ccf3d10a75)"><g clip-path="url(#353b5acd82)"><g transform="matrix(1, 0, 0, 1, 261, 297)"><g clip-path="url(#b8a0ce1d50)"><g clip-path="url(#90ee3eb721)"><g clip-path="url(#09a8bbb8e2)"><path fill="#2c2c2f" d="M 245.160156 214.210938 L 0.472656 214.210938 L 0.472656 0.425781 L 245.160156 0.425781 Z M 245.160156 214.210938 " fill-opacity="1" fill-rule="nonzero"/></g></g></g></g></g></g><g clip-path="url(#7aec0e8319)"><g clip-path="url(#550d220ae1)"><g transform="matrix(1, 0, 0, 1, 249, 370)"><g clip-path="url(#f3eb273d6e)"><g clip-path="url(#efd73c1fe3)"><g clip-path="url(#3946b51400)"><path fill="#2c2c2f" d="M 63.117188 0.566406 L 97.59375 61.078125 L 34.953125 96.765625 L 0.476562 36.253906 Z M 63.117188 0.566406 " fill-opacity="1" fill-rule="nonzero"/></g></g></g></g></g></g><g clip-path="url(#e67f56b6bb)"><g clip-path="url(#d549aa3ffa)"><g transform="matrix(1, 0, 0, 1, 423, 373)"><g clip-path="url(#ee266df091)"><g clip-path="url(#308527f7f8)"><g clip-path="url(#e8e559f087)"><path fill="#2c2c2f" d="M 0.410156 59.386719 L 33.550781 0.511719 L 89.371094 31.933594 L 56.230469 90.804688 Z M 0.410156 59.386719 " fill-opacity="1" fill-rule="nonzero"/></g></g></g></g></g></g></g></g></svg>